# xmcd
#
# Track frame offsets:
#	150
#	23755
#	40706
#	69073
#	86198
#	106556
#	132195
#	148324
#	175268
#	203801
#	227499
#
# Disc length: 3527 seconds
#
# Revision: 0
# Processed by: cddbd v1.4PL0 Copyright (c) Steve Scherf et al.
# Submitted via: EasyCDDAExtractor 4.6.0.1
#
DISCID=880dc50b
DTITLE=Black Cadillac - Tocando Blues
DYEAR=2001
DGENRE=Blues
TTITLE0=Destino Chicago
TTITLE1=No Tom Do Telefone
TTITLE2=Blues Na 28
TTITLE3=I'm Just A Simpe Man
TTITLE4=Tocando Blues
TTITLE5=Sem O Rock Eu N„O Posso Ficar
TTITLE6=Legends
TTITLE7=Outro Olhar
TTITLE8=SÛ
TTITLE9=Estado De EspÌRito
TTITLE10=Blue Suede Shoes
EXTD=
EXTT0=
EXTT1=
EXTT2=
EXTT3=
EXTT4=
EXTT5=
EXTT6=
EXTT7=
EXTT8=
EXTT9=
EXTT10=
PLAYORDER=
